<svg xmlns="http://www.w3.org/2000/svg" xmlns:xlink="http://www.w3.org/1999/xlink" width="500" zoomAndPan="magnify" viewBox="0 0 375 374.999991" height="500" preserveAspectRatio="xMidYMid meet" version="1.0"><defs><g/><clipPath id="e90ce16922"><path d="M 121.9375 85.507812 L 253.1875 85.507812 L 253.1875 235.507812 L 121.9375 235.507812 Z M 121.9375 85.507812 " clip-rule="nonzero"/></clipPath></defs><g clip-path="url(#e90ce16922)"><path fill="#2dcd93" d="M 130.105469 156.492188 L 122.054688 156.492188 C 121.988281 157.820312 121.945312 159.167969 121.945312 160.519531 C 121.945312 161.867188 121.988281 163.195312 122.054688 164.542969 L 139.792969 164.542969 C 140.503906 174.699219 143.863281 184.144531 149.195312 192.171875 L 155.035156 186.332031 C 151.054688 179.894531 148.511719 172.484375 147.867188 164.542969 C 147.757812 163.21875 147.714844 161.867188 147.714844 160.519531 C 147.714844 159.148438 147.757812 157.820312 147.867188 156.492188 C 148.511719 148.527344 151.054688 141.117188 155.035156 134.679688 L 149.195312 128.839844 C 143.863281 136.871094 140.503906 146.316406 139.792969 156.492188 Z M 153.066406 211.085938 L 147.359375 216.792969 C 145.347656 215 143.421875 213.121094 141.609375 211.152344 C 131.964844 200.601562 125.304688 187.328125 122.917969 172.597656 L 131.078125 172.597656 C 133.359375 185.09375 139.109375 196.398438 147.316406 205.445312 L 150.722656 202.039062 L 154.152344 198.589844 L 159.859375 192.902344 C 161.628906 194.917969 163.574219 196.796875 165.632812 198.5 C 171.160156 203.054688 177.710938 206.441406 184.855469 208.253906 L 184.855469 216.527344 C 175.496094 214.515625 166.980469 210.203125 159.925781 204.230469 L 156.917969 207.238281 Z M 165.433594 160.519531 C 165.433594 161.867188 165.519531 163.21875 165.675781 164.542969 C 167.667969 180.027344 180.894531 192.019531 196.953125 192.019531 C 201.378906 192.019531 205.605469 191.109375 209.429688 189.453125 L 215.46875 195.492188 C 209.9375 198.410156 203.636719 200.070312 196.953125 200.070312 C 176.449219 200.070312 159.59375 184.496094 157.578125 164.542969 C 157.445312 163.21875 157.378906 161.867188 157.378906 160.519531 C 157.378906 159.148438 157.445312 157.796875 157.578125 156.492188 C 159.59375 136.519531 176.449219 120.945312 196.953125 120.945312 C 203.636719 120.945312 209.9375 122.605469 215.46875 125.523438 L 209.429688 131.5625 C 205.605469 129.902344 201.378906 128.996094 196.953125 128.996094 C 180.894531 128.996094 167.667969 140.984375 165.675781 156.492188 C 165.519531 157.796875 165.433594 159.148438 165.433594 160.519531 Z M 222.28125 190.914062 L 216.554688 185.183594 C 218.65625 183.5 220.535156 181.578125 222.171875 179.410156 L 227.902344 185.160156 L 234.78125 192.019531 L 253.050781 210.289062 C 251.261719 212.304688 249.378906 214.207031 247.390625 216.019531 C 236.882812 225.574219 223.652344 232.167969 209.03125 234.535156 L 209.03125 226.371094 C 221.441406 224.117188 232.65625 218.40625 241.683594 210.3125 L 237.457031 206.085938 L 234.824219 203.476562 L 229.117188 197.769531 Z M 200.980469 209.582031 C 208.832031 208.941406 216.15625 206.464844 222.546875 202.570312 L 228.386719 208.410156 C 220.402344 213.652344 211.046875 216.949219 200.980469 217.65625 L 200.980469 235.398438 C 199.632812 235.484375 198.304688 235.507812 196.953125 235.507812 C 195.605469 235.507812 194.257812 235.484375 192.929688 235.398438 C 178.375 234.644531 164.925781 229.710938 153.730469 221.816406 L 159.503906 216.019531 C 169.148438 222.542969 180.585938 226.613281 192.929688 227.34375 L 192.929688 209.582031 C 194.257812 209.691406 195.582031 209.738281 196.953125 209.738281 C 198.304688 209.738281 199.652344 209.691406 200.980469 209.582031 Z M 153.066406 109.949219 L 147.359375 104.242188 C 145.347656 106.011719 143.421875 107.894531 141.609375 109.882812 C 131.964844 120.414062 125.304688 133.707031 122.917969 148.417969 L 131.078125 148.417969 C 133.359375 135.921875 139.109375 124.617188 147.316406 115.570312 L 150.722656 118.976562 L 154.152344 122.425781 L 159.859375 128.132812 C 161.628906 126.097656 163.574219 124.21875 165.632812 122.515625 C 171.160156 117.957031 177.710938 114.574219 184.855469 112.761719 L 184.855469 104.507812 C 175.496094 106.523438 166.980469 110.8125 159.925781 116.785156 L 156.917969 113.800781 Z M 222.28125 130.101562 L 216.554688 135.832031 C 218.65625 137.511719 220.535156 139.460938 222.171875 141.605469 L 253.050781 110.726562 C 251.261719 108.710938 249.378906 106.808594 247.390625 104.996094 C 236.882812 95.460938 223.652344 88.847656 209.03125 86.480469 L 209.03125 94.644531 C 221.441406 96.921875 232.65625 102.605469 241.683594 110.703125 L 237.457031 114.929688 L 234.824219 117.539062 L 229.117188 123.246094 Z M 200.980469 111.433594 C 208.832031 112.074219 216.15625 114.550781 222.546875 118.445312 L 228.386719 112.605469 C 220.402344 107.363281 211.046875 104.066406 200.980469 103.359375 L 200.980469 85.617188 C 199.632812 85.550781 198.304688 85.507812 196.953125 85.507812 C 195.605469 85.507812 194.257812 85.550781 192.929688 85.617188 C 178.375 86.390625 164.925781 91.304688 153.730469 99.199219 L 159.503906 104.996094 C 169.148438 98.46875 180.585938 94.421875 192.929688 93.667969 L 192.929688 111.433594 C 194.257812 111.320312 195.582031 111.277344 196.953125 111.277344 C 198.304688 111.277344 199.652344 111.320312 200.980469 111.433594 Z M 200.980469 111.433594 " fill-opacity="1" fill-rule="evenodd"/></g><g fill="#2dcd93" fill-opacity="1"><g transform="translate(100.467845, 270.120186)"><g><path d="M 15.480469 -15.886719 L 15.972656 -20.140625 C 14.726562 -20.6875 13.339844 -20.949219 11.890625 -20.949219 C -2.113281 -20.949219 -2.140625 0.0585938 11.890625 0.0585938 C 13.339844 0.0585938 15.160156 -0.289062 16.433594 -0.808594 L 15.886719 -5.09375 C 15.105469 -4.6875 13.6875 -4.167969 11.890625 -4.167969 C 3.703125 -4.167969 3.703125 -16.78125 11.890625 -16.78125 C 13.6875 -16.78125 14.699219 -16.289062 15.480469 -15.886719 Z M 15.480469 -15.886719 "/></g></g></g><g fill="#2dcd93" fill-opacity="1"><g transform="translate(125.612475, 270.120186)"><g><path d="M 12.269531 0.289062 C 26.503906 0.289062 26.503906 -21.035156 12.269531 -21.035156 C -1.96875 -21.035156 -1.96875 0.289062 12.269531 0.289062 Z M 12.269531 -3.992188 C 3.992188 -3.992188 3.992188 -16.78125 12.269531 -16.78125 C 20.542969 -16.78125 20.542969 -3.992188 12.269531 -3.992188 Z M 12.269531 -3.992188 "/></g></g></g><g fill="#2dcd93" fill-opacity="1"><g transform="translate(157.845816, 270.120186)"><g><path d="M 17.160156 -7.203125 L 17.160156 -20.6875 L 13.050781 -20.6875 L 13.050781 -7.234375 C 13.050781 -2.894531 6.335938 -2.894531 6.335938 -7.234375 L 6.335938 -20.6875 L 2.199219 -20.6875 L 2.199219 -7.203125 C 2.199219 2.632812 17.160156 2.632812 17.160156 -7.203125 Z M 17.160156 -7.203125 "/></g></g></g><g fill="#2dcd93" fill-opacity="1"><g transform="translate(184.986857, 270.120186)"><g><path d="M 12.617188 0 L 17.304688 0 L 12.5 -8.535156 C 18.578125 -10.300781 17.851562 -20.6875 10.472656 -20.6875 L 2.316406 -20.6875 L 2.316406 0 L 6.453125 0 L 6.453125 -7.898438 L 8.449219 -7.898438 Z M 6.453125 -11.921875 L 6.453125 -16.550781 L 10.097656 -16.550781 C 12.90625 -16.550781 12.90625 -11.921875 10.097656 -11.921875 Z M 6.453125 -11.921875 "/></g></g></g><g fill="#2dcd93" fill-opacity="1"><g transform="translate(210.449748, 270.120186)"><g><path d="M 1.359375 -1.332031 C 4.167969 0.117188 6.742188 0.261719 7.898438 0.171875 C 11.777344 -0.0273438 14.148438 -2.660156 14.148438 -6.105469 C 14.148438 -9.402344 11.371094 -11.253906 8.160156 -12.441406 C 6.972656 -12.847656 5.960938 -13.367188 5.84375 -14.523438 C 5.757812 -15.683594 6.421875 -16.753906 7.898438 -16.839844 C 8.535156 -16.867188 9.839844 -16.898438 12.125 -15.972656 L 12.644531 -19.964844 C 9.984375 -20.890625 8.566406 -20.890625 7.496094 -20.832031 C 4.050781 -20.660156 1.648438 -17.996094 1.648438 -14.523438 C 1.648438 -11.054688 4.542969 -9.402344 7.785156 -8.21875 C 8.941406 -7.8125 9.839844 -7.292969 9.925781 -6.105469 C 10.039062 -4.976562 9 -4.109375 7.785156 -4.023438 C 6.828125 -3.933594 4.253906 -3.992188 1.878906 -5.671875 Z M 1.359375 -1.332031 "/></g></g></g><g fill="#2dcd93" fill-opacity="1"><g transform="translate(233.482228, 270.120186)"><g><path d="M 6.453125 0 L 6.453125 -20.6875 L 2.316406 -20.6875 L 2.316406 0 Z M 6.453125 0 "/></g></g></g><g fill="#2dcd93" fill-opacity="1"><g transform="translate(250.004669, 270.120186)"><g><path d="M 12.269531 0.289062 C 26.503906 0.289062 26.503906 -21.035156 12.269531 -21.035156 C -1.96875 -21.035156 -1.96875 0.289062 12.269531 0.289062 Z M 12.269531 -3.992188 C 3.992188 -3.992188 3.992188 -16.78125 12.269531 -16.78125 C 20.542969 -16.78125 20.542969 -3.992188 12.269531 -3.992188 Z M 12.269531 -3.992188 "/></g></g></g><g fill="#737373" fill-opacity="1"><g transform="translate(106.609196, 286.45187)"><g><path d="M 6.984375 -3.390625 C 6.984375 -2.691406 6.867188 -2.082031 6.640625 -1.5625 C 6.410156 -1.039062 6.054688 -0.632812 5.578125 -0.34375 C 5.097656 -0.0507812 4.492188 0.09375 3.765625 0.09375 C 3.035156 0.09375 2.429688 -0.0507812 1.953125 -0.34375 C 1.472656 -0.632812 1.117188 -1.039062 0.890625 -1.5625 C 0.660156 -2.082031 0.546875 -2.695312 0.546875 -3.40625 C 0.546875 -4.101562 0.660156 -4.707031 0.890625 -5.21875 C 1.117188 -5.738281 1.472656 -6.140625 1.953125 -6.421875 C 2.429688 -6.710938 3.039062 -6.859375 3.78125 -6.859375 C 4.507812 -6.859375 5.109375 -6.710938 5.578125 -6.421875 C 6.054688 -6.140625 6.410156 -5.738281 6.640625 -5.21875 C 6.867188 -4.695312 6.984375 -4.085938 6.984375 -3.390625 Z M 2.0625 -3.390625 C 2.0625 -2.679688 2.195312 -2.125 2.46875 -1.71875 C 2.738281 -1.3125 3.171875 -1.109375 3.765625 -1.109375 C 4.378906 -1.109375 4.816406 -1.3125 5.078125 -1.71875 C 5.347656 -2.125 5.484375 -2.679688 5.484375 -3.390625 C 5.484375 -4.097656 5.347656 -4.65625 5.078125 -5.0625 C 4.816406 -5.46875 4.382812 -5.671875 3.78125 -5.671875 C 3.175781 -5.671875 2.738281 -5.46875 2.46875 -5.0625 C 2.195312 -4.65625 2.0625 -4.097656 2.0625 -3.390625 Z M 2.0625 -3.390625 "/></g></g></g><g fill="#737373" fill-opacity="1"><g transform="translate(121.714591, 286.45187)"><g><path d="M 6.390625 0 L 4.96875 0 L 4.96875 -2.921875 L 2.28125 -2.921875 L 2.28125 0 L 0.859375 0 L 0.859375 -6.765625 L 2.28125 -6.765625 L 2.28125 -4.109375 L 4.96875 -4.109375 L 4.96875 -6.765625 L 6.390625 -6.765625 Z M 6.390625 0 "/></g></g></g><g fill="#737373" fill-opacity="1"><g transform="translate(136.526719, 286.45187)"><g><path d="M 6.203125 0 L 4.765625 0 L 4.765625 -5.5625 L 3.109375 -5.5625 C 3.078125 -5.269531 3.039062 -4.953125 3 -4.609375 C 2.957031 -4.273438 2.910156 -3.929688 2.859375 -3.578125 C 2.816406 -3.234375 2.769531 -2.90625 2.71875 -2.59375 C 2.664062 -2.28125 2.613281 -2.003906 2.5625 -1.765625 C 2.476562 -1.367188 2.367188 -1.03125 2.234375 -0.75 C 2.097656 -0.476562 1.910156 -0.269531 1.671875 -0.125 C 1.441406 0.0195312 1.132812 0.09375 0.75 0.09375 C 0.507812 0.09375 0.285156 0.0546875 0.078125 -0.015625 L 0.078125 -1.1875 C 0.160156 -1.15625 0.238281 -1.128906 0.3125 -1.109375 C 0.394531 -1.097656 0.484375 -1.09375 0.578125 -1.09375 C 0.765625 -1.09375 0.90625 -1.1875 1 -1.375 C 1.09375 -1.570312 1.191406 -1.9375 1.296875 -2.46875 C 1.335938 -2.664062 1.390625 -2.976562 1.453125 -3.40625 C 1.523438 -3.832031 1.601562 -4.332031 1.6875 -4.90625 C 1.769531 -5.488281 1.851562 -6.109375 1.9375 -6.765625 L 6.203125 -6.765625 Z M 6.203125 0 "/></g></g></g><g fill="#737373" fill-opacity="1"><g transform="translate(151.149648, 286.45187)"><g><path d="M 4.984375 0 L 4.5 -1.609375 L 2.03125 -1.609375 L 1.546875 0 L 0 0 L 2.390625 -6.796875 L 4.140625 -6.796875 L 6.53125 0 Z M 4.15625 -2.8125 L 3.671875 -4.390625 C 3.628906 -4.492188 3.582031 -4.625 3.53125 -4.78125 C 3.488281 -4.945312 3.441406 -5.113281 3.390625 -5.28125 C 3.335938 -5.457031 3.296875 -5.609375 3.265625 -5.734375 C 3.234375 -5.609375 3.191406 -5.453125 3.140625 -5.265625 C 3.085938 -5.078125 3.035156 -4.898438 2.984375 -4.734375 C 2.941406 -4.566406 2.90625 -4.453125 2.875 -4.390625 L 2.390625 -2.8125 Z M 4.15625 -2.8125 "/></g></g></g><g fill="#737373" fill-opacity="1"><g transform="translate(165.252273, 286.45187)"><g><path d="M 0.859375 -6.765625 L 2.140625 -6.765625 L 2.140625 -3.5 C 2.140625 -3.332031 2.132812 -3.148438 2.125 -2.953125 C 2.125 -2.765625 2.117188 -2.578125 2.109375 -2.390625 C 2.109375 -2.203125 2.101562 -2.039062 2.09375 -1.90625 C 2.082031 -1.769531 2.078125 -1.675781 2.078125 -1.625 L 2.109375 -1.625 L 5.234375 -6.765625 L 6.9375 -6.765625 L 6.9375 0 L 5.65625 0 L 5.65625 -3.25 C 5.65625 -3.414062 5.660156 -3.601562 5.671875 -3.8125 C 5.679688 -4.019531 5.6875 -4.21875 5.6875 -4.40625 C 5.695312 -4.59375 5.707031 -4.753906 5.71875 -4.890625 C 5.726562 -5.035156 5.738281 -5.128906 5.75 -5.171875 L 5.703125 -5.171875 L 2.578125 0 L 0.859375 0 Z M 6.296875 -8.984375 C 6.265625 -8.660156 6.171875 -8.375 6.015625 -8.125 C 5.867188 -7.875 5.632812 -7.675781 5.3125 -7.53125 C 4.988281 -7.394531 4.554688 -7.328125 4.015625 -7.328125 C 3.460938 -7.328125 3.03125 -7.394531 2.71875 -7.53125 C 2.40625 -7.664062 2.179688 -7.859375 2.046875 -8.109375 C 1.910156 -8.359375 1.832031 -8.648438 1.8125 -8.984375 L 3.078125 -8.984375 C 3.097656 -8.640625 3.179688 -8.410156 3.328125 -8.296875 C 3.472656 -8.179688 3.710938 -8.125 4.046875 -8.125 C 4.316406 -8.125 4.535156 -8.1875 4.703125 -8.3125 C 4.878906 -8.4375 4.984375 -8.660156 5.015625 -8.984375 Z M 6.296875 -8.984375 "/></g></g></g><g fill="#737373" fill-opacity="1"><g transform="translate(180.613089, 286.45187)"><g><path d="M 6.390625 0 L 4.96875 0 L 4.96875 -2.921875 L 2.28125 -2.921875 L 2.28125 0 L 0.859375 0 L 0.859375 -6.765625 L 2.28125 -6.765625 L 2.28125 -4.109375 L 4.96875 -4.109375 L 4.96875 -6.765625 L 6.390625 -6.765625 Z M 6.390625 0 "/></g></g></g><g fill="#737373" fill-opacity="1"><g transform="translate(195.425219, 286.45187)"><g/></g></g><g fill="#737373" fill-opacity="1"><g transform="translate(205.687045, 286.45187)"><g><path d="M 6.359375 0 L 4.734375 0 L 2.28125 -3.421875 L 2.28125 0 L 0.859375 0 L 0.859375 -6.765625 L 2.28125 -6.765625 L 2.28125 -3.484375 L 4.703125 -6.765625 L 6.234375 -6.765625 L 3.765625 -3.515625 Z M 6.359375 0 "/></g></g></g><g fill="#737373" fill-opacity="1"><g transform="translate(219.619388, 286.45187)"><g><path d="M 6.28125 -6.765625 L 4.1875 -1.984375 C 4 -1.546875 3.796875 -1.171875 3.578125 -0.859375 C 3.359375 -0.546875 3.085938 -0.304688 2.765625 -0.140625 C 2.441406 0.015625 2.015625 0.09375 1.484375 0.09375 C 1.316406 0.09375 1.132812 0.078125 0.9375 0.046875 C 0.75 0.0234375 0.570312 -0.00390625 0.40625 -0.046875 L 0.40625 -1.28125 C 0.5625 -1.21875 0.726562 -1.171875 0.90625 -1.140625 C 1.082031 -1.117188 1.253906 -1.109375 1.421875 -1.109375 C 1.734375 -1.109375 1.957031 -1.1875 2.09375 -1.34375 C 2.238281 -1.5 2.351562 -1.6875 2.4375 -1.90625 L 0.09375 -6.765625 L 1.609375 -6.765625 L 2.875 -3.828125 C 2.914062 -3.734375 2.972656 -3.597656 3.046875 -3.421875 C 3.117188 -3.253906 3.175781 -3.109375 3.21875 -2.984375 L 3.265625 -2.984375 C 3.304688 -3.097656 3.363281 -3.25 3.4375 -3.4375 C 3.507812 -3.625 3.570312 -3.785156 3.625 -3.921875 L 4.796875 -6.765625 Z M 6.28125 -6.765625 "/></g></g></g><g fill="#737373" fill-opacity="1"><g transform="translate(233.466588, 286.45187)"><g><path d="M 3.015625 -6.765625 C 3.878906 -6.765625 4.507812 -6.578125 4.90625 -6.203125 C 5.3125 -5.828125 5.515625 -5.3125 5.515625 -4.65625 C 5.515625 -4.25 5.429688 -3.875 5.265625 -3.53125 C 5.109375 -3.195312 4.835938 -2.925781 4.453125 -2.71875 C 4.066406 -2.507812 3.546875 -2.40625 2.890625 -2.40625 L 2.28125 -2.40625 L 2.28125 0 L 0.859375 0 L 0.859375 -6.765625 Z M 2.9375 -5.59375 L 2.28125 -5.59375 L 2.28125 -3.578125 L 2.75 -3.578125 C 3.15625 -3.578125 3.476562 -3.65625 3.71875 -3.8125 C 3.957031 -3.976562 4.078125 -4.242188 4.078125 -4.609375 C 4.078125 -5.265625 3.695312 -5.59375 2.9375 -5.59375 Z M 2.9375 -5.59375 "/></g></g></g><g fill="#737373" fill-opacity="1"><g transform="translate(246.982684, 286.45187)"><g><path d="M 3.71875 -5.65625 C 3.164062 -5.65625 2.742188 -5.453125 2.453125 -5.046875 C 2.171875 -4.640625 2.03125 -4.078125 2.03125 -3.359375 C 2.03125 -2.640625 2.160156 -2.082031 2.421875 -1.6875 C 2.691406 -1.289062 3.125 -1.09375 3.71875 -1.09375 C 3.988281 -1.09375 4.265625 -1.125 4.546875 -1.1875 C 4.828125 -1.25 5.125 -1.335938 5.4375 -1.453125 L 5.4375 -0.25 C 5.144531 -0.132812 4.851562 -0.0507812 4.5625 0 C 4.269531 0.0625 3.945312 0.09375 3.59375 0.09375 C 2.882812 0.09375 2.304688 -0.046875 1.859375 -0.328125 C 1.410156 -0.617188 1.078125 -1.023438 0.859375 -1.546875 C 0.648438 -2.066406 0.546875 -2.675781 0.546875 -3.375 C 0.546875 -4.050781 0.664062 -4.648438 0.90625 -5.171875 C 1.15625 -5.703125 1.515625 -6.113281 1.984375 -6.40625 C 2.460938 -6.707031 3.039062 -6.859375 3.71875 -6.859375 C 4.050781 -6.859375 4.382812 -6.8125 4.71875 -6.71875 C 5.0625 -6.632812 5.390625 -6.519531 5.703125 -6.375 L 5.234375 -5.21875 C 4.984375 -5.332031 4.726562 -5.429688 4.46875 -5.515625 C 4.21875 -5.609375 3.96875 -5.65625 3.71875 -5.65625 Z M 3.71875 -5.65625 "/></g></g></g><g fill="#737373" fill-opacity="1"><g transform="translate(260.583925, 286.45187)"><g><path d="M 0.859375 -6.765625 L 2.140625 -6.765625 L 2.140625 -3.5 C 2.140625 -3.332031 2.132812 -3.148438 2.125 -2.953125 C 2.125 -2.765625 2.117188 -2.578125 2.109375 -2.390625 C 2.109375 -2.203125 2.101562 -2.039062 2.09375 -1.90625 C 2.082031 -1.769531 2.078125 -1.675781 2.078125 -1.625 L 2.109375 -1.625 L 5.234375 -6.765625 L 6.9375 -6.765625 L 6.9375 0 L 5.65625 0 L 5.65625 -3.25 C 5.65625 -3.414062 5.660156 -3.601562 5.671875 -3.8125 C 5.679688 -4.019531 5.6875 -4.21875 5.6875 -4.40625 C 5.695312 -4.59375 5.707031 -4.753906 5.71875 -4.890625 C 5.726562 -5.035156 5.738281 -5.128906 5.75 -5.171875 L 5.703125 -5.171875 L 2.578125 0 L 0.859375 0 Z M 0.859375 -6.765625 "/></g></g></g></svg>